<?xml version="1.0" encoding="utf-8"?>
<!-- Generator: Adobe Illustrator 23.1.0, SVG Export Plug-In . SVG Version: 6.00 Build 0)  -->
<svg version="1.1" id="图层_1" xmlns="http://www.w3.org/2000/svg" xmlns:xlink="http://www.w3.org/1999/xlink" x="0px" y="0px"
	 viewBox="0 0 36 36" style="enable-background:new 0 0 36 36;" xml:space="preserve">
<style type="text/css">
	.st0{fill:#E8EFF6;}
	.st1{fill:#2785DF;}
	.st2{fill:#1ABFA1;}
</style>
<g>
	<path class="st0" d="M30,36H6c-3.3,0-6-2.7-6-6V6c0-3.3,2.7-6,6-6h24c3.3,0,6,2.7,6,6v24C36,33.3,33.3,36,30,36z"/>
	<g>
		<path class="st1" d="M17.9,28.6c-5.5,0-10-4.5-10-10s4.5-10,10-10s10,4.5,10,10S23.4,28.6,17.9,28.6z M17.9,10.1
			c-4.7,0-8.5,3.8-8.5,8.5s3.8,8.5,8.5,8.5s8.5-3.8,8.5-8.5S22.6,10.1,17.9,10.1z"/>
		<path class="st1" d="M27,10.9c-0.9-1.1-2-2-3.3-2.5l0.8-1.8c1.6,0.7,3,1.8,4.1,3.1L27,10.9z"/>
		<path class="st1" d="M9,10.9L7.4,9.6c1.1-1.4,2.5-2.5,4.1-3.1l0.8,1.8C11,8.9,9.8,9.8,9,10.9z"/>
		<polygon class="st2" points="22,20.2 16.9,20.2 16.9,14.4 18.4,14.4 18.4,18.7 22,18.7 		"/>
		<rect x="10.1" y="26.4" transform="matrix(0.6777 -0.7353 0.7353 0.6777 -16.3836 17.4052)" class="st1" width="3.2" height="2"/>
		<rect x="23.1" y="25.8" transform="matrix(0.7353 -0.6778 0.6778 0.7353 -12.1796 23.6023)" class="st1" width="2" height="3.2"/>
	</g>
</g>
</svg>
