<?xml version="1.0" encoding="utf-8"?>
<!-- Generator: Adobe Illustrator 23.1.0, SVG Export Plug-In . SVG Version: 6.00 Build 0)  -->
<svg version="1.1" id="图层_1" xmlns="http://www.w3.org/2000/svg" xmlns:xlink="http://www.w3.org/1999/xlink" x="0px" y="0px"
	 viewBox="0 0 36 36" style="enable-background:new 0 0 36 36;" xml:space="preserve">
<style type="text/css">
	.st0{fill:#E8EFF6;}
	.st1{fill:#1ABFA1;}
	.st2{fill:#2785DF;}
</style>
<path class="st0" d="M6,36c-3.3,0-6-2.7-6-6V6c0-3.3,2.7-6,6-6h24c3.3,0,6,2.7,6,6v24c0,3.3-2.7,6-6,6"/>
<g>
	<polygon class="st1" points="28.1,22.6 17.6,22.6 17.6,21.1 25.4,21.1 24.1,18.8 25.4,18 	"/>
	<polygon class="st1" points="20,29.6 17.3,25 27.8,25 27.8,26.5 20,26.5 21.3,28.8 	"/>
	<g>
		<g>
			<polygon class="st2" points="13.9,25.6 7.9,25.6 7.9,6.4 25.4,6.4 25.4,13.8 23.9,13.8 23.9,7.9 9.4,7.9 9.4,24.1 13.9,24.1 			
				"/>
		</g>
		<g>
			<rect x="13.9" y="12.6" class="st2" width="6.1" height="1.5"/>
			<rect x="13.9" y="15.1" class="st2" width="6.1" height="1.5"/>
			<rect x="16.2" y="13.4" class="st2" width="1.5" height="5.1"/>
			<g>
				<rect x="15.1" y="11" transform="matrix(0.8748 -0.4845 0.4845 0.8748 -3.9383 9.2227)" class="st2" width="1.5" height="2.4"/>
				
					<rect x="16.8" y="11.5" transform="matrix(0.4843 -0.8749 0.8749 0.4843 -1.4184 22.057)" class="st2" width="2.4" height="1.5"/>
			</g>
		</g>
	</g>
</g>
</svg>
