<?xml version="1.0" encoding="utf-8"?>
<!-- Generator: Adobe Illustrator 23.1.0, SVG Export Plug-In . SVG Version: 6.00 Build 0)  -->
<svg version="1.1" id="图层_1" xmlns="http://www.w3.org/2000/svg" xmlns:xlink="http://www.w3.org/1999/xlink" x="0px" y="0px"
	 viewBox="0 0 36 36" style="enable-background:new 0 0 36 36;" xml:space="preserve">
<style type="text/css">
	.st0{fill:#E8EFF6;}
	.st1{fill:#1ABFA1;}
	.st2{fill:#2785DF;}
</style>
<path class="st0" d="M6,36c-3.3,0-6-2.7-6-6V6c0-3.3,2.7-6,6-6h24c3.3,0,6,2.7,6,6v24c0,3.3-2.7,6-6,6"/>
<g>
	<polygon class="st1" points="28.5,22.4 18.6,22.4 18.6,20.9 25.8,20.9 24.6,18.8 25.9,18.1 	"/>
	<polygon class="st1" points="20.8,28.9 18.3,24.6 28.1,24.6 28.1,26.1 20.9,26.1 22.1,28.1 	"/>
	<g>
		<path class="st2" d="M15.1,18.9C11.7,18.9,9,16.2,9,13s2.7-5.9,6.1-5.9s6.1,2.6,6.1,5.9S18.4,18.9,15.1,18.9z M15.1,8.6
			c-2.5,0-4.6,2-4.6,4.4s2.1,4.4,4.6,4.4s4.6-2,4.6-4.4S17.6,8.6,15.1,8.6z"/>
		<path class="st2" d="M12.8,27.7l-3.1,0c-2,0-2.2,0-2.2-0.8c0-7.9,4.1-9.6,7.6-9.6v1.5c-3.9,0-5.9,2.3-6,7.3c1.9,0,7.7,0,7.9,0
			l0,0.8h0C17,27.7,17,27.7,12.8,27.7z"/>
	</g>
</g>
</svg>
