<?xml version="1.0" encoding="utf-8"?>
<!-- Generator: Adobe Illustrator 23.1.0, SVG Export Plug-In . SVG Version: 6.00 Build 0)  -->
<svg version="1.1" id="图层_1" xmlns="http://www.w3.org/2000/svg" xmlns:xlink="http://www.w3.org/1999/xlink" x="0px" y="0px"
	 viewBox="0 0 36 36" style="enable-background:new 0 0 36 36;" xml:space="preserve">
<style type="text/css">
	.st0{fill:#E8EFF6;}
	.st1{fill:#2785DF;}
	.st2{fill:#1ABFA1;}
</style>
<path class="st0" d="M30,36H6c-3.3,0-6-2.7-6-6V6c0-3.3,2.7-6,6-6h24c3.3,0,6,2.7,6,6v24C36,33.3,33.3,36,30,36z"/>
<g>
	<g>
		<path class="st1" d="M28.3,28.9H7.7V13.7h20.5V28.9z M9.2,27.4h17.5V15.2H9.2V27.4z"/>
		<polygon class="st2" points="21.5,23.4 16.5,23.4 16.5,18 18,18 18,21.9 21.5,21.9 		"/>
		<path class="st1" d="M23.9,15.2H12.1V7.1h11.8V15.2z M13.6,13.7h8.8V8.6h-8.8V13.7z"/>
	</g>
</g>
</svg>
