<?xml version="1.0" encoding="utf-8"?>
<!-- Generator: Adobe Illustrator 23.1.0, SVG Export Plug-In . SVG Version: 6.00 Build 0)  -->
<svg version="1.1" id="图层_1" xmlns="http://www.w3.org/2000/svg" xmlns:xlink="http://www.w3.org/1999/xlink" x="0px" y="0px"
	 viewBox="0 0 36 36" style="enable-background:new 0 0 36 36;" xml:space="preserve">
<style type="text/css">
	.st0{fill:#E8EFF6;}
	.st1{fill:#1ABFA1;}
	.st2{fill:#2785DF;}
</style>
<path class="st0" d="M30,36H6c-3.3,0-6-2.7-6-6V6c0-3.3,2.7-6,6-6h24c3.3,0,6,2.7,6,6v24C36,33.3,33.3,36,30,36z"/>
<g>
	<g>
		<g>
			<path class="st1" d="M24.3,25c-1.9,0-3.5-1.5-3.5-3.3s1.5-3.3,3.5-3.3s3.5,1.5,3.5,3.3S26.2,25,24.3,25z M24.3,19.8
				c-1.1,0-2,0.8-2,1.8s0.9,1.8,2,1.8s2-0.8,2-1.8S25.4,19.8,24.3,19.8z"/>
			<path class="st1" d="M23.8,29.4c-0.2,0-0.5,0-0.8,0c-2.7,0-2.7,0-2.9-0.5l0-0.2c0-4.3,2.3-5.2,4.2-5.2V25c-1.1,0-2.4,0.4-2.7,3
				c1.2,0,3.4,0,3.5,0l0,0.8l0.1,0.7C25.2,29.4,25.2,29.4,23.8,29.4z"/>
			<path class="st1" d="M25.3,29.4H24c-0.6,0-1.3,0-1.3-0.8h1.5h-0.8l0-0.8c0.1,0,2.3,0,3.5,0c-0.2-2.6-1.5-3-2.7-3v-1.5
				c1.9,0,4.2,0.9,4.2,5.2C28.5,29.4,28.5,29.4,25.3,29.4z"/>
		</g>
	</g>
	<g>
		<path class="st2" d="M17.8,27.2c-5.7,0-10.3-4.6-10.3-10.3S12.2,6.6,17.8,6.6c5.7,0,10.3,4.6,10.3,10.3h-1.5c0-4.9-4-8.8-8.8-8.8
			C13,8.1,9,12,9,16.9s4,8.8,8.8,8.8V27.2z"/>
		<polygon class="st2" points="22.2,17.8 16.5,17.8 16.5,12 18,12 18,16.3 22.2,16.3 		"/>
	</g>
</g>
</svg>
