<?xml version="1.0" encoding="utf-8"?>
<!-- Generator: Adobe Illustrator 23.1.0, SVG Export Plug-In . SVG Version: 6.00 Build 0)  -->
<svg version="1.1" id="图层_1" xmlns="http://www.w3.org/2000/svg" xmlns:xlink="http://www.w3.org/1999/xlink" x="0px" y="0px"
	 viewBox="0 0 36 36" style="enable-background:new 0 0 36 36;" xml:space="preserve">
<style type="text/css">
	.st0{fill:#E8EFF6;}
	.st1{fill:#2785DF;}
	.st2{fill:#1ABFA1;}
</style>
<path class="st0" d="M30,36H6c-3.3,0-6-2.7-6-6V6c0-3.3,2.7-6,6-6h24c3.3,0,6,2.7,6,6v24C36,33.3,33.3,36,30,36z"/>
<g>
	<path class="st1" d="M17.1,31.3H9.7V15.9h7.4V31.3z M11.2,29.8h4.4V17.4h-4.4V29.8z"/>
	<path class="st1" d="M26.3,31.3h-7.4v-9.9h7.4V31.3z M20.4,29.8h4.4v-6.9h-4.4V29.8z"/>
	<path class="st2" d="M13.4,14.7c-1.4,0-2.4-0.8-3-1.7c-0.7-1.1-0.5-2.4,0.4-3.2c2.6-2.3,1.9-4,1.9-4c-0.2-0.3,0-0.7,0.3-0.9
		c0.3-0.2,0.7-0.2,1,0.1c0.4,0.4,3.8,4.3,3.1,7.2c-0.2,0.7-0.7,1.8-2.3,2.3C14.3,14.6,13.9,14.7,13.4,14.7z M14.2,7.7
		c-0.3,0.9-0.9,2.1-2.3,3.3c-0.6,0.5-0.2,1.1-0.1,1.3c0.4,0.7,1.4,1.2,2.5,0.8c0.8-0.3,1.2-0.7,1.3-1.3C15.9,10.6,15.1,9,14.2,7.7z"
		/>
	<path class="st2" d="M22.5,20.1c-1.4,0-2.4-0.8-3-1.7C18.8,17.3,19,16,20,15.2c2.6-2.3,1.9-4,1.9-4c-0.2-0.3,0-0.7,0.3-0.9
		c0.3-0.2,0.7-0.2,1,0.1c0.4,0.4,3.8,4.3,3.1,7.2c-0.2,0.7-0.7,1.8-2.3,2.3C23.4,20,22.9,20.1,22.5,20.1z M23.3,13
		c-0.3,0.9-0.9,2.1-2.3,3.3c-0.6,0.5-0.3,1.1-0.1,1.3c0.4,0.7,1.4,1.2,2.5,0.8c0.8-0.3,1.2-0.7,1.3-1.3C25,16,24.1,14.3,23.3,13z"/>
</g>
</svg>
