<?xml version="1.0" encoding="utf-8"?>
<!-- Generator: Adobe Illustrator 23.1.0, SVG Export Plug-In . SVG Version: 6.00 Build 0)  -->
<svg version="1.1" id="图层_1" xmlns="http://www.w3.org/2000/svg" xmlns:xlink="http://www.w3.org/1999/xlink" x="0px" y="0px"
	 viewBox="0 0 36 36" style="enable-background:new 0 0 36 36;" xml:space="preserve">
<style type="text/css">
	.st0{fill:#E8EFF6;}
	.st1{fill:#1ABFA1;}
	.st2{fill:#2785DF;}
</style>
<path class="st0" d="M30,36H6c-3.3,0-6-2.7-6-6V6c0-3.3,2.7-6,6-6h24c3.3,0,6,2.7,6,6v24C36,33.3,33.3,36,30,36z"/>
<g>
	<polygon class="st1" points="23.3,22.3 22.2,21.3 25.5,18 22.2,14.8 23.3,13.7 27.6,18 	"/>
	<rect x="16.7" y="17.3" class="st1" width="9.2" height="1.5"/>
	<polygon class="st2" points="22.1,28 8.4,28 8.4,8 22.1,8 22.1,11.4 20.6,11.4 20.6,9.5 9.9,9.5 9.9,26.5 20.6,26.5 20.6,24.7 
		22.1,24.7 	"/>
</g>
</svg>
