<?xml version="1.0" encoding="utf-8"?>
<!-- Generator: Adobe Illustrator 23.1.0, SVG Export Plug-In . SVG Version: 6.00 Build 0)  -->
<svg version="1.1" id="图层_1" xmlns="http://www.w3.org/2000/svg" xmlns:xlink="http://www.w3.org/1999/xlink" x="0px" y="0px"
	 viewBox="0 0 36 36" style="enable-background:new 0 0 36 36;" xml:space="preserve">
<style type="text/css">
	.st0{fill:#E8EFF6;}
	.st1{fill:#FFFFFF;}
	.st2{fill:#1ABFA1;}
	.st3{fill:#2785DF;}
</style>
<path class="st0" d="M30,36H6c-3.3,0-6-2.7-6-6V6c0-3.3,2.7-6,6-6h24c3.3,0,6,2.7,6,6v24C36,33.3,33.3,36,30,36z"/>
<g>
	<g>
		<line class="st1" x1="9" y1="12.3" x2="17.4" y2="10.4"/>
		<path class="st2" d="M9,13.1c-0.3,0-0.6-0.2-0.7-0.6c-0.1-0.4,0.2-0.8,0.6-0.9l8.4-2c0.4-0.1,0.8,0.2,0.9,0.6
			c0.1,0.4-0.2,0.8-0.6,0.9l-8.4,2C9.1,13.1,9.1,13.1,9,13.1z"/>
	</g>
	<g>
		<line class="st1" x1="17.1" y1="15.5" x2="27.4" y2="13.5"/>
		<path class="st2" d="M17.1,16.2c-0.4,0-0.7-0.2-0.7-0.6c-0.1-0.4,0.2-0.8,0.6-0.9l10.3-2c0.4-0.1,0.8,0.2,0.9,0.6
			c0.1,0.4-0.2,0.8-0.6,0.9l-10.3,2C17.2,16.2,17.1,16.2,17.1,16.2z"/>
	</g>
	<path class="st3" d="M23.6,24c-0.8-1.1-1.6-1.6-2.4-1.6c0,0,0,0,0,0c-1.2,0-2.1,1.1-2.1,1.1l-1.2-0.9c0.1-0.1,1.4-1.7,3.4-1.7
		c1.3,0,2.5,0.8,3.6,2.2L23.6,24z"/>
	<circle class="st3" cx="17.4" cy="18.3" r="1.2"/>
	<circle class="st3" cx="24.9" cy="18" r="1.2"/>
	<g>
		<line class="st1" x1="7.7" y1="16.6" x2="20.9" y2="8.2"/>
		<path class="st2" d="M7.7,17.4c-0.2,0-0.5-0.1-0.6-0.3c-0.2-0.3-0.1-0.8,0.2-1l13.2-8.4c0.3-0.2,0.8-0.1,1,0.2
			c0.2,0.3,0.1,0.8-0.2,1L8.1,17.2C8,17.3,7.8,17.4,7.7,17.4z"/>
	</g>
	<g>
		<line class="st1" x1="8.2" y1="21.2" x2="24.9" y2="10.5"/>
		<path class="st2" d="M8.2,22c-0.2,0-0.5-0.1-0.6-0.3c-0.2-0.3-0.1-0.8,0.2-1L24.5,9.8c0.3-0.2,0.8-0.1,1,0.2
			c0.2,0.3,0.1,0.8-0.2,1L8.6,21.8C8.4,21.9,8.3,22,8.2,22z"/>
	</g>
	<path class="st3" d="M18,29.4c-6.3,0-11.4-5.1-11.4-11.4c0-6.3,5.1-11.4,11.4-11.4S29.4,11.7,29.4,18C29.4,24.3,24.3,29.4,18,29.4z
		 M18,8.1c-5.4,0-9.9,4.4-9.9,9.9c0,5.4,4.4,9.9,9.9,9.9s9.9-4.4,9.9-9.9C27.9,12.6,23.4,8.1,18,8.1z"/>
</g>
</svg>
