<?xml version="1.0" encoding="utf-8"?>
<!-- Generator: Adobe Illustrator 23.1.0, SVG Export Plug-In . SVG Version: 6.00 Build 0)  -->
<svg version="1.1" id="图层_1" xmlns="http://www.w3.org/2000/svg" xmlns:xlink="http://www.w3.org/1999/xlink" x="0px" y="0px"
	 viewBox="0 0 36 36" style="enable-background:new 0 0 36 36;" xml:space="preserve">
<style type="text/css">
	.st0{fill:#E8EFF6;}
	.st1{fill:#2785DF;}
	.st2{fill:#1ABFA1;}
</style>
<path class="st0" d="M30,36H6c-3.3,0-6-2.7-6-6V6c0-3.3,2.7-6,6-6h24c3.3,0,6,2.7,6,6v24C36,33.3,33.3,36,30,36z"/>
<g>
	<path class="st1" d="M17.4,26.4c0,0-0.1,0-0.1,0C12,25.7,7.3,22.7,5.6,19c-0.9-2-0.8-3.9,0.2-5.5c1.1-1.7,3-2.7,5-2.5
		c1.4,0.1,2.7,0.8,3.7,1.9c0.4-1.4,1.2-2.6,2.4-3.4c1.7-1,3.8-1,5.6,0c2.4,1.4,3.3,4.4,2.2,8L23.1,17c0.8-2.8,0.2-5.2-1.5-6.2
		c-1.3-0.7-2.8-0.7-4,0c-1.3,0.8-2,2.4-1.9,4.4c0,0.4-0.2,0.7-0.6,0.8c-0.4,0.1-0.7-0.1-0.9-0.4c-0.8-1.8-2.1-2.9-3.7-3
		C9.2,12.3,7.8,13,7,14.3c-0.9,1.4-0.6,3-0.1,4.1c1.2,2.7,4.9,5.7,10.3,6.5c0.6-0.4,1.2-0.9,1.7-1.4l1,1.1c-0.7,0.6-1.4,1.2-2.1,1.7
		C17.7,26.3,17.6,26.4,17.4,26.4z"/>
	<path class="st2" d="M22.3,27.3c-0.2,0-0.3,0-0.4-0.1c-3.1-2.2-5.1-5.4-5-8.3c0.1-1.6,0.7-2.8,1.9-3.5c1.3-0.7,2.8-0.7,4,0
		c0.8,0.5,1.3,1.2,1.6,2c0.7-0.6,1.5-1,2.4-1.1c1.4-0.1,2.8,0.6,3.6,1.8c0.7,1.1,0.8,2.6,0.1,4C29.4,24.7,26.2,26.8,22.3,27.3
		C22.4,27.3,22.4,27.3,22.3,27.3z M20.9,16.3c-0.4,0-0.9,0.1-1.3,0.3c-0.9,0.5-1.1,1.5-1.2,2.2c-0.1,1.9,1.2,4.8,4.1,6.9
		c3.6-0.6,5.9-2.5,6.8-4.3c0.3-0.7,0.5-1.6,0-2.5c-0.5-0.8-1.4-1.2-2.2-1.1c-1,0.1-1.8,0.8-2.3,1.9c-0.1,0.3-0.5,0.5-0.9,0.4
		c-0.4-0.1-0.6-0.4-0.6-0.8c0.1-1.2-0.3-2.2-1.2-2.8C21.7,16.4,21.3,16.3,20.9,16.3z"/>
</g>
</svg>
