<?xml version="1.0" encoding="utf-8"?>
<!-- Generator: Adobe Illustrator 23.1.0, SVG Export Plug-In . SVG Version: 6.00 Build 0)  -->
<svg version="1.1" id="图层_1" xmlns="http://www.w3.org/2000/svg" xmlns:xlink="http://www.w3.org/1999/xlink" x="0px" y="0px"
	 viewBox="0 0 36 36" style="enable-background:new 0 0 36 36;" xml:space="preserve">
<style type="text/css">
	.st0{fill:#E8EFF6;}
	.st1{fill:none;stroke:#2785DF;stroke-width:1.5;stroke-miterlimit:10;}
	.st2{fill:none;stroke:#1ABFA1;stroke-width:1.5;stroke-miterlimit:10;}
</style>
<path class="st0" d="M6,36c-3.3,0-6-2.7-6-6V6c0-3.3,2.7-6,6-6h24c3.3,0,6,2.7,6,6v24c0,3.3-2.7,6-6,6"/>
<g>
	<g>
		<ellipse class="st1" cx="16.6" cy="14" rx="2.2" ry="2.1"/>
		<path class="st1" d="M19.4,19.6c-2.8,0-2.8,0-5.5,0c0-1.5,0.3-3.6,2.8-3.6S19.4,18.1,19.4,19.6z"/>
	</g>
	<polyline class="st1" points="24.8,15.8 24.8,7.4 22.5,7.4 10.8,7.4 8.5,7.4 8.5,26.1 17.8,26.1 	"/>
	<polyline class="st2" points="20.6,23.1 24.1,19.6 27.5,23 	"/>
	<line class="st2" x1="24.1" y1="28.6" x2="24.1" y2="20.2"/>
</g>
</svg>
