<?xml version="1.0" encoding="utf-8"?>
<!-- Generator: Adobe Illustrator 23.1.0, SVG Export Plug-In . SVG Version: 6.00 Build 0)  -->
<svg version="1.1" id="图层_1" xmlns="http://www.w3.org/2000/svg" xmlns:xlink="http://www.w3.org/1999/xlink" x="0px" y="0px"
	 viewBox="0 0 36 36" style="enable-background:new 0 0 36 36;" xml:space="preserve">
<style type="text/css">
	.st0{fill:#E8EFF6;}
	.st1{fill:#2785DF;}
	.st2{fill:#1ABFA1;}
</style>
<path class="st0" d="M30,36H6c-3.3,0-6-2.7-6-6V6c0-3.3,2.7-6,6-6h24c3.3,0,6,2.7,6,6v24C36,33.3,33.3,36,30,36z"/>
<g>
	<path class="st1" d="M15.4,25.4c-0.3,0-0.6,0-0.9-0.1c-3.9-0.4-7.1-3.6-7.6-7.6c-0.3-2.4,0.5-4.9,2.1-6.7c1.6-1.8,4-2.9,6.4-2.9
		v1.5c-2,0-3.9,0.9-5.3,2.4c-1.4,1.5-2,3.5-1.8,5.5c0.4,3.3,3,5.9,6.2,6.2c3,0.3,5.9-1.3,7.2-3.9c0.1-0.3,2.8-7,4.5-11.5L26.5,8h3.7
		v1.5h-2.7c-1.4,3.6-4.3,10.9-4.4,11.1C21.7,23.5,18.6,25.4,15.4,25.4z"/>
	<rect x="7.5" y="15.4" class="st1" width="16.8" height="1.5"/>
	<rect x="14.5" y="8.4" transform="matrix(0.7361 -0.6769 0.6769 0.7361 -4.694 13.7215)" class="st1" width="1.5" height="8.9"/>
	<circle class="st2" cx="7.9" cy="25.9" r="2.1"/>
	<circle class="st2" cx="22.7" cy="25.9" r="2.1"/>
</g>
</svg>
