<?xml version="1.0" encoding="utf-8"?>
<!-- Generator: Adobe Illustrator 23.1.0, SVG Export Plug-In . SVG Version: 6.00 Build 0)  -->
<svg version="1.1" id="图层_1" xmlns="http://www.w3.org/2000/svg" xmlns:xlink="http://www.w3.org/1999/xlink" x="0px" y="0px"
	 viewBox="0 0 36 36" style="enable-background:new 0 0 36 36;" xml:space="preserve">
<style type="text/css">
	.st0{fill:#E8EFF6;}
	.st1{fill:#2785DF;}
	.st2{fill:#1ABFA1;}
</style>
<g>
	<path class="st0" d="M30,36H6c-3.3,0-6-2.7-6-6V6c0-3.3,2.7-6,6-6h24c3.3,0,6,2.7,6,6v24C36,33.3,33.3,36,30,36z"/>
	<g>
		<path class="st1" d="M13.5,22.1c-2,0-4.2-0.7-5.7-1.1l-0.6-0.2C6.5,20.6,6,20,6,19.2c0-0.7,0.5-1.3,1.2-1.5c0.4-0.1,1-0.2,1.8-0.3
			c1.2-0.2,3.8-0.5,4.3-0.8l1.4-1.1l-6-1.8l1.2-0.9c1.5-1.1,3.4-1.7,5.3-1.7c0,0,0,0,0,0l5.5,0l4-2.9c1.5-1.1,3.5-1,4.4,0.3v0
			c0.9,1.3,0.4,3.2-1.1,4.3l-11.5,8.4C15.7,21.9,14.6,22.1,13.5,22.1z M12.3,13.3l5.7,1.8l-3.9,2.8c-0.7,0.5-2.5,0.8-4.9,1.1
			c-0.7,0.1-1.3,0.2-1.6,0.2l0.6,0.3c2,0.6,5.8,1.8,7.5,0.5l11.5-8.4c0.8-0.6,1.2-1.6,0.7-2.2l0,0c-0.4-0.6-1.5-0.6-2.3,0l-4.4,3.2
			l-6,0c0,0,0,0,0,0C14.2,12.7,13.2,12.9,12.3,13.3z"/>
		<path class="st1" d="M21.6,23c-0.4,0-0.8-0.2-1.1-0.5c-1.2-1.1-1.2-4.1-1.2-4.7l1.5,0c0,1.1,0.2,3.1,0.8,3.6
			c0.1,0.1,0.1,0.1,0.1,0.1c0.5-0.3,1.3-3.4,1.6-6.6l1.5,0.1c-0.3,3.5-1.1,7.8-3,7.9C21.7,23,21.7,23,21.6,23z"/>
		<rect x="7.1" y="26.9" class="st2" width="22.1" height="1.5"/>
	</g>
</g>
</svg>
