<?xml version="1.0" encoding="UTF-8"?>
<!-- Generator: Adobe Illustrator 23.1.0, SVG Export Plug-In . SVG Version: 6.00 Build 0)  -->
<svg version="1.1" id="图层_1" xmlns="http://www.w3.org/2000/svg" xmlns:xlink="http://www.w3.org/1999/xlink" x="0px" y="0px" viewBox="0 0 36 36" style="enable-background:new 0 0 36 36;" xml:space="preserve">
<style type="text/css">
	.st0{fill:#E8EFF6;}
	.st1{fill:#2785DF;}
	.st2{fill:#1ABFA1;}
</style>
<path class="st0" d="M30,36H6c-3.3,0-6-2.7-6-6V6c0-3.3,2.7-6,6-6h24c3.3,0,6,2.7,6,6v24C36,33.3,33.3,36,30,36z"/>
<g>
	<g>
		<path class="st1" d="M23,24.3c-2,0-3.6-1.6-3.6-3.5s1.6-3.5,3.6-3.5s3.6,1.6,3.6,3.5S25,24.3,23,24.3z M23,18.8    c-1.2,0-2.1,0.9-2.1,2s1,2,2.1,2s2.1-0.9,2.1-2S24.1,18.8,23,18.8z"/>
		<path class="st1" d="M22.2,29.1l-1.9,0c-1.2,0-1.7,0-1.7-0.8c0-4.5,2.4-5.5,4.4-5.5v1.5c-1.3,0-2.7,0.4-2.9,3.3c1.3,0,3.7,0,3.8,0    l0,0.8h0.8C24.6,29.1,24.6,29.1,22.2,29.1z"/>
		<path class="st1" d="M23.8,29.1l-1.2,0c-0.6,0-1.3,0-1.3-0.8h1.5H22l0-0.8c0.1,0,2.5,0,3.8,0c-0.2-2.9-1.6-3.3-2.9-3.3v-1.5    c2,0,4.4,1,4.4,5.5C27.4,29.1,27.4,29.1,23.8,29.1z"/>
	</g>
	<polygon class="st1" points="16.7,27.4 8.6,27.4 8.6,6.9 26.7,6.9 26.7,16.2 25.2,16.2 25.2,8.4 10.1,8.4 10.1,25.9 16.7,25.9  "/>
	<rect x="14.1" y="12.4" class="st2" width="7.2" height="1.5"/>
	<rect x="14.1" y="16.8" class="st2" width="3.8" height="1.5"/>
</g>
</svg>